<?xml version="1.0" encoding="utf-8"?>
<!-- Generator: Adobe Illustrator 25.4.1, SVG Export Plug-In . SVG Version: 6.00 Build 0)  -->
<svg version="1.1" id="Capa_1" xmlns="http://www.w3.org/2000/svg" xmlns:xlink="http://www.w3.org/1999/xlink" x="0px" y="0px"
	 viewBox="0 0 800 698" style="enable-background:new 0 0 800 698;" xml:space="preserve">
<g>
	<g>
		<path d="M150.35,486.1h-10.38v-51.88h37.36c9.34,0,15.57,6.23,15.57,15.57c0,8.92-6.23,15.05-15.57,15.05h-26.98V486.1z
			 M150.35,455.49h26.98c3.11,0,5.19-2.08,5.19-5.19v-1.56c0-3.11-2.08-5.19-5.19-5.19h-26.98V455.49z"/>
		<path d="M210.53,434.22h37.36c9.34,0,15.57,6.23,15.57,15.57c0,8.3-5.4,14.11-13.59,14.94c0.73,0.83,1.45,1.76,1.87,2.49
			l11.73,18.89h-11.73l-13.18-21.27h-17.64v21.27h-10.38V434.22z M247.89,455.49c3.11,0,5.19-2.08,5.19-5.19v-1.56
			c0-3.11-2.08-5.19-5.19-5.19h-26.98v11.93H247.89z"/>
		<path d="M282.13,486.1v-51.88h10.38v51.88H282.13z"/>
		<path d="M350.09,470.23c0-4.15-4.57-5.91-14.94-5.91c-16.39,0-23.45-4.36-23.45-14.84c0-10.58,8.3-16.29,23.87-16.29
			c14.32,0,23.87,6.64,23.87,16.6h-10.38c0-4.36-5.4-7.26-13.49-7.26c-8.82,0-13.49,2.39-13.49,6.95c0,3.94,4.15,5.5,14.01,5.5
			c17.12,0,24.39,4.67,24.39,15.25c0,11-8.72,16.91-24.9,16.91c-14.94,0-24.9-6.64-24.9-16.6h10.38c0,4.36,5.81,7.26,14.53,7.26
			C345.01,477.8,350.09,475.11,350.09,470.23z"/>
		<path d="M404.25,456.01h0.73l16.19-21.79h9.34v51.88h-10.38v-36.32h-0.21c0,0-1.04,3.32-2.91,5.81l-7.26,9.75h-10.38l-7.26-9.75
			c-1.87-2.49-2.91-5.81-2.91-5.81H389v36.32h-10.38v-51.88h9.34L404.25,456.01z"/>
		<path d="M446.59,486.1l21.27-51.88h15.56l21.27,51.88h-11.21l-4.25-10.38h-27.39l-4.25,10.38H446.59z M485.4,466.39l-9.34-22.83
			h-1.04l-9.34,22.83H485.4z"/>
		<path d="M508.84,434.22h51.88v9.34h-20.75v42.54H529.6v-42.54h-20.75V434.22z"/>
		<path d="M577.84,486.1v-51.88h10.38v51.88H577.84z"/>
		<path d="M648.92,464.83h11.1c-2.08,13.18-12.66,22.31-26.67,22.31c-15.57,0-26.98-11.41-26.98-26.98
			c0-15.56,11.41-26.98,26.98-26.98c14.01,0,24.59,9.13,26.67,22.31h-11.1c-1.76-7.47-7.78-12.45-15.56-12.45
			c-9.34,0-16.08,7.26-16.08,17.12c0,9.86,6.74,17.12,16.08,17.12C641.14,477.28,647.16,472.2,648.92,464.83z"/>
	</g>
	<g>
		<path d="M289.74,543.01c0,0.85,0.21,1.66,0.65,2.43c0.43,0.78,1.01,1.46,1.75,2.06c0.74,0.6,1.61,1.08,2.61,1.43
			c1.01,0.35,2.08,0.53,3.24,0.53c3,0,5.26-0.51,6.81-1.54c1.54-1.03,2.32-2.54,2.32-4.54c0-1.06-0.23-1.95-0.7-2.66
			c-0.47-0.71-1.11-1.3-1.94-1.76c-0.82-0.46-1.78-0.83-2.88-1.12s-2.28-0.53-3.54-0.75c-0.75-0.11-1.54-0.23-2.37-0.37
			c-0.83-0.14-1.65-0.32-2.47-0.55s-1.59-0.53-2.33-0.89c-0.74-0.36-1.39-0.81-1.96-1.35c-0.57-0.54-1.02-1.19-1.35-1.95
			c-0.33-0.76-0.49-1.66-0.49-2.71c0-1.23,0.21-2.4,0.62-3.53c0.41-1.12,1.08-2.11,2-2.96s2.13-1.53,3.62-2.04
			c1.49-0.51,3.32-0.76,5.48-0.76c1.66,0,3.14,0.22,4.46,0.66c1.31,0.44,2.43,1.04,3.35,1.82s1.63,1.7,2.12,2.79
			c0.49,1.08,0.74,2.27,0.74,3.56h-3.64c0-0.84-0.17-1.61-0.52-2.29c-0.35-0.68-0.83-1.27-1.46-1.76s-1.4-0.87-2.3-1.14
			c-0.91-0.27-1.91-0.4-3.02-0.4c-1.52,0-2.78,0.17-3.78,0.51c-1,0.34-1.8,0.78-2.4,1.32c-0.6,0.55-1.02,1.16-1.27,1.84
			c-0.25,0.68-0.37,1.38-0.37,2.09c0,0.91,0.22,1.66,0.66,2.27c0.44,0.61,1.05,1.11,1.83,1.51c0.78,0.4,1.72,0.71,2.81,0.94
			c1.09,0.23,2.29,0.42,3.59,0.58c0.86,0.15,1.73,0.33,2.61,0.52c0.88,0.19,1.74,0.44,2.57,0.74c0.83,0.3,1.6,0.67,2.33,1.11
			c0.72,0.44,1.35,0.97,1.89,1.6c0.54,0.63,0.96,1.37,1.28,2.21c0.32,0.85,0.47,1.83,0.47,2.95c0,1.46-0.29,2.76-0.88,3.91
			c-0.58,1.14-1.43,2.11-2.53,2.9c-1.11,0.79-2.45,1.4-4.04,1.82c-1.59,0.42-3.39,0.63-5.4,0.63c-1.87,0-3.54-0.28-5.01-0.85
			c-1.47-0.57-2.7-1.31-3.71-2.21c-1.01-0.91-1.77-1.94-2.29-3.09c-0.52-1.15-0.78-2.32-0.78-3.5H289.74z"/>
		<path d="M330.16,540.96v11.06h-3.62v-31.34h12.76c1.49,0,2.86,0.25,4.12,0.76c1.26,0.51,2.35,1.21,3.26,2.12
			c0.91,0.91,1.62,1.98,2.13,3.21c0.51,1.24,0.76,2.59,0.76,4.07c0,1.47-0.25,2.83-0.76,4.07c-0.51,1.24-1.21,2.3-2.12,3.2
			c-0.91,0.9-1.98,1.6-3.23,2.1c-1.24,0.5-2.61,0.75-4.1,0.75H330.16z M339.24,537.78c0.97,0,1.86-0.18,2.68-0.53
			c0.82-0.35,1.53-0.84,2.13-1.46s1.07-1.36,1.41-2.2c0.34-0.84,0.51-1.76,0.51-2.74c0-0.97-0.17-1.88-0.52-2.73
			c-0.35-0.85-0.82-1.59-1.43-2.22c-0.61-0.63-1.33-1.13-2.15-1.49c-0.83-0.36-1.73-0.54-2.7-0.54h-9.01v13.92H339.24z"/>
		<path d="M381.31,544.69h-16.22l-3.11,7.33h-3.85l13.32-31.34h3.53l13.29,31.34h-3.85L381.31,544.69z M366.42,541.54h13.55
			l-6.63-15.64l-0.14-0.53l-0.12,0.53L366.42,541.54z"/>
		<path d="M427.82,530.36c-0.52-1.11-1.19-2.1-1.99-2.98c-0.81-0.88-1.72-1.64-2.73-2.26s-2.11-1.1-3.28-1.44
			c-1.17-0.34-2.39-0.51-3.65-0.51c-1.81,0-3.51,0.34-5.1,1.01c-1.59,0.68-2.98,1.6-4.17,2.79c-1.19,1.18-2.13,2.57-2.81,4.17
			c-0.68,1.6-1.02,3.33-1.02,5.18c0,1.84,0.34,3.56,1.02,5.16c0.68,1.6,1.62,2.98,2.81,4.16c1.19,1.18,2.58,2.1,4.17,2.78
			c1.59,0.68,3.29,1.01,5.1,1.01c1.24,0,2.45-0.16,3.63-0.5c1.17-0.33,2.27-0.8,3.28-1.42c1.01-0.61,1.92-1.36,2.73-2.25
			c0.81-0.88,1.47-1.88,1.99-2.98h3.78c-0.58,1.63-1.41,3.08-2.48,4.35c-1.07,1.28-2.28,2.35-3.65,3.24
			c-1.37,0.88-2.85,1.56-4.45,2.03c-1.6,0.47-3.21,0.7-4.84,0.7c-1.54,0-3.02-0.19-4.45-0.58c-1.43-0.38-2.76-0.93-4-1.64
			c-1.24-0.71-2.37-1.55-3.39-2.53c-1.02-0.98-1.89-2.08-2.61-3.29c-0.72-1.21-1.28-2.51-1.68-3.91c-0.4-1.39-0.6-2.84-0.6-4.34
			c0-1.52,0.2-2.98,0.6-4.38c0.4-1.4,0.96-2.7,1.68-3.92c0.72-1.21,1.59-2.31,2.61-3.29c1.02-0.98,2.15-1.83,3.39-2.53
			c1.24-0.71,2.57-1.25,4-1.64c1.43-0.38,2.91-0.58,4.45-0.58c1.63,0,3.24,0.23,4.83,0.69c1.59,0.46,3.07,1.13,4.45,2.02
			c1.37,0.88,2.6,1.97,3.66,3.25c1.07,1.28,1.89,2.75,2.48,4.41H427.82z"/>
		<path d="M448.01,520.69h20.64v3.23h-17.03v11.01h14.82v3.18h-14.82v10.71h17.23v3.2h-20.85V520.69z"/>
		<path d="M485.81,543.01c0,0.85,0.21,1.66,0.64,2.43c0.43,0.78,1.01,1.46,1.75,2.06c0.74,0.6,1.61,1.08,2.62,1.43
			c1.01,0.35,2.08,0.53,3.24,0.53c2.99,0,5.26-0.51,6.81-1.54c1.54-1.03,2.31-2.54,2.31-4.54c0-1.06-0.23-1.95-0.7-2.66
			c-0.47-0.71-1.11-1.3-1.94-1.76c-0.82-0.46-1.78-0.83-2.88-1.12c-1.1-0.28-2.28-0.53-3.54-0.75c-0.75-0.11-1.54-0.23-2.37-0.37
			c-0.83-0.14-1.65-0.32-2.47-0.55s-1.59-0.53-2.33-0.89c-0.74-0.36-1.39-0.81-1.96-1.35c-0.57-0.54-1.02-1.19-1.35-1.95
			c-0.33-0.76-0.5-1.66-0.5-2.71c0-1.23,0.21-2.4,0.62-3.53c0.42-1.12,1.08-2.11,2-2.96s2.13-1.53,3.62-2.04
			c1.49-0.51,3.32-0.76,5.48-0.76c1.66,0,3.14,0.22,4.46,0.66c1.31,0.44,2.43,1.04,3.35,1.82s1.63,1.7,2.12,2.79
			c0.49,1.08,0.74,2.27,0.74,3.56h-3.64c0-0.84-0.17-1.61-0.52-2.29c-0.35-0.68-0.83-1.27-1.46-1.76s-1.4-0.87-2.3-1.14
			c-0.91-0.27-1.91-0.4-3.02-0.4c-1.52,0-2.78,0.17-3.78,0.51c-1,0.34-1.8,0.78-2.39,1.32c-0.6,0.55-1.02,1.16-1.27,1.84
			c-0.25,0.68-0.37,1.38-0.37,2.09c0,0.91,0.22,1.66,0.66,2.27c0.44,0.61,1.05,1.11,1.83,1.51c0.78,0.4,1.72,0.71,2.81,0.94
			c1.09,0.23,2.29,0.42,3.59,0.58c0.86,0.15,1.73,0.33,2.62,0.52c0.88,0.19,1.74,0.44,2.57,0.74c0.83,0.3,1.61,0.67,2.33,1.11
			c0.72,0.44,1.35,0.97,1.89,1.6c0.54,0.63,0.96,1.37,1.28,2.21c0.31,0.85,0.47,1.83,0.47,2.95c0,1.46-0.29,2.76-0.88,3.91
			c-0.58,1.14-1.43,2.11-2.53,2.9s-2.45,1.4-4.04,1.82c-1.59,0.42-3.39,0.63-5.4,0.63c-1.87,0-3.54-0.28-5.01-0.85
			c-1.47-0.57-2.7-1.31-3.71-2.21c-1-0.91-1.77-1.94-2.29-3.09c-0.52-1.15-0.78-2.32-0.78-3.5H485.81z"/>
	</g>
	<g>
		<g>
			<path d="M374.23,203.52l-46.92,49c-0.44,0.46-0.69,1.08-0.7,1.71l-1,128.01c-0.02,2.28,2.77,3.4,4.34,1.74l43.6-46.44
				c0.44-0.46,0.68-1.08,0.68-1.72v-18.58h66.6c0.7,0,1.38-0.3,1.85-0.82l21.47-23.52h-89.93V203.52z"/>
		</g>
		<g>
			<path d="M516.13,145.33H340.25c-2.62,0-5.13,1.07-6.94,2.97l-48.66,50.98c-1.52,1.6-0.39,4.24,1.81,4.24h87.77h89.93v89.4
				l53.78-55.87c0.45-0.47,0.7-1.09,0.7-1.74v-87.46C518.64,146.46,517.52,145.33,516.13,145.33z M480.41,258.32
				c0,3.66-1.45,7.16-4.04,9.75l-2.93,2.93v-77.03H302.11c4.17-4.66,10.12-7.32,16.37-7.32h161.93V258.32z M496.87,242.01
				c0,3.66-1.45,7.16-4.04,9.75l-2.93,2.93v-77.03H318.57c4.17-4.66,10.12-7.32,16.37-7.32h161.93V242.01z M511.68,225.08
				c0,3.66-1.45,7.16-4.04,9.75l-2.93,2.93v-77.03H333.38c4.17-4.66,10.12-7.32,16.37-7.32h161.93V225.08z"/>
		</g>
	</g>
</g>
</svg>
