<?xml version="1.0" encoding="utf-8"?>
<!-- Generator: Adobe Illustrator 25.4.1, SVG Export Plug-In . SVG Version: 6.00 Build 0)  -->
<svg version="1.1" id="Capa_1" xmlns="http://www.w3.org/2000/svg" xmlns:xlink="http://www.w3.org/1999/xlink" x="0px" y="0px"
	 viewBox="0 0 346 356" style="enable-background:new 0 0 346 356;" xml:space="preserve">
<style type="text/css">
	.st0{fill:#5D4B98;}
</style>
<g>
	<g>
		<path class="st0" d="M145.93,116.47l-46.92,49c-0.44,0.46-0.69,1.08-0.7,1.71l-1,128.01c-0.02,2.28,2.77,3.4,4.34,1.74l43.6-46.44
			c0.44-0.46,0.68-1.08,0.68-1.72v-18.58h66.6c0.7,0,1.38-0.3,1.85-0.82l21.47-23.52h-89.93v-89.38H145.93z"/>
	</g>
	<g>
		<path class="st0" d="M287.83,58.28H111.95c-2.62,0-5.13,1.07-6.94,2.97l-48.66,50.98c-1.52,1.6-0.39,4.24,1.81,4.24h87.77h89.93
			v89.4L289.64,150c0.45-0.47,0.7-1.09,0.7-1.74V60.8C290.34,59.41,289.22,58.28,287.83,58.28z M252.11,171.27
			c0,3.66-1.45,7.16-4.04,9.75l-2.93,2.93v-77.03H73.81c4.17-4.66,10.12-7.32,16.37-7.32h161.93L252.11,171.27L252.11,171.27z
			 M268.57,154.96c0,3.66-1.45,7.16-4.04,9.75l-2.93,2.93V90.61H90.27c4.17-4.66,10.12-7.32,16.37-7.32h161.93V154.96z
			 M283.38,138.03c0,3.66-1.45,7.16-4.04,9.75l-2.93,2.93V73.68H105.08c4.17-4.66,10.12-7.32,16.37-7.32h161.93V138.03z"/>
	</g>
</g>
</svg>
