<svg xmlns="http://www.w3.org/2000/svg" viewBox="0 0 1111.34 239.44"><g id="Capa_2" data-name="Capa 2"><g id="Capa_1-2" data-name="Capa 1"><path d="M311.48,88.81H295.19V7.39h58.63c14.66,0,24.43,9.78,24.43,24.44,0,14-9.77,23.62-24.43,23.62H311.48V88.81Zm0-48h42.34c4.88,0,8.14-3.26,8.14-8.14V30.18c0-4.88-3.26-8.14-8.14-8.14H311.48Z"/><path d="M405.92,7.39h58.63c14.66,0,24.44,9.78,24.44,24.44,0,13-8.48,22.14-21.33,23.45a26.9,26.9,0,0,1,2.94,3.9L489,88.83H470.6L449.91,55.45H422.23V88.83H405.94V7.39Zm58.63,33.38c4.88,0,8.15-3.26,8.15-8.14V30.18c0-4.88-3.27-8.14-8.15-8.14H422.21V40.76h42.34Z"/><path d="M518.29,88.81V7.39h16.29V88.81Z"/><path d="M624.94,63.91c0-6.52-7.17-9.28-23.44-9.28-25.73,0-36.8-6.84-36.8-23.29,0-16.6,13-25.56,37.46-25.56,22.47,0,37.46,10.42,37.46,26.05H623.33c0-6.84-8.48-11.39-21.17-11.39-13.85,0-21.17,3.75-21.17,10.9,0,6.19,6.51,8.63,22,8.63,26.87,0,38.28,7.33,38.28,23.94,0,17.26-13.69,26.53-39.08,26.53-23.44,0-39.08-10.42-39.08-26h16.29c0,6.85,9.12,11.4,22.81,11.4C617,75.79,624.94,71.57,624.94,63.91Z"/><path d="M709.94,41.59h1.15l25.4-34.2h14.66V88.81H734.86v-57h-.33A34.82,34.82,0,0,1,730,40.93l-11.39,15.3H702.28l-11.39-15.3a34.82,34.82,0,0,1-4.57-9.12H686v57H669.72V7.39h14.65Z"/><path d="M776.39,88.81,809.77,7.39h24.42l33.38,81.42H850L843.3,72.52h-43l-6.67,16.29Zm60.9-30.93L822.64,22.05H821L806.35,57.88Z"/><path d="M874.08,7.39H955.5V22.05H922.93V88.81H906.66V22.05H874.1V7.39Z"/><path d="M982.37,88.81V7.39h16.29V88.81Z"/><path d="M1093.92,55.43h17.42c-3.27,20.69-19.87,35-41.86,35-24.43,0-42.34-17.9-42.34-42.34s17.91-42.34,42.34-42.34c22,0,38.59,14.33,41.86,35h-17.42c-2.77-11.72-12.21-19.53-24.42-19.53-14.66,0-25.24,11.39-25.24,26.86S1054.84,75,1069.5,75C1081.71,75,1091.15,67,1093.92,55.43Z"/><path d="M530.23,178.12a7.57,7.57,0,0,0,1,3.82,11.07,11.07,0,0,0,2.75,3.23,13.68,13.68,0,0,0,4.09,2.25,15.65,15.65,0,0,0,5.09.83c4.71,0,8.25-.8,10.69-2.42a8.05,8.05,0,0,0,3.64-7.12,7.41,7.41,0,0,0-1.1-4.18,8.52,8.52,0,0,0-3-2.76,19.37,19.37,0,0,0-4.52-1.76c-1.72-.45-3.57-.83-5.55-1.18-1.18-.17-2.42-.36-3.72-.58a37.94,37.94,0,0,1-3.88-.86A21.35,21.35,0,0,1,532,166a12.36,12.36,0,0,1-3.08-2.11,9.37,9.37,0,0,1-2.12-3.06,10.63,10.63,0,0,1-.77-4.26,16,16,0,0,1,1-5.54,11.72,11.72,0,0,1,3.13-4.64,15.78,15.78,0,0,1,5.69-3.2,26.5,26.5,0,0,1,8.6-1.2,22.1,22.1,0,0,1,7,1,15.84,15.84,0,0,1,5.25,2.85,12.29,12.29,0,0,1,3.33,4.38,13.41,13.41,0,0,1,1.16,5.59H555.5a7.71,7.71,0,0,0-.82-3.59,8.22,8.22,0,0,0-2.29-2.77,11.29,11.29,0,0,0-3.61-1.79,16.74,16.74,0,0,0-4.74-.62,18.52,18.52,0,0,0-5.93.8,10.71,10.71,0,0,0-3.77,2.07,7.27,7.27,0,0,0-2,2.89,9.45,9.45,0,0,0-.58,3.28,5.93,5.93,0,0,0,1,3.56,7.82,7.82,0,0,0,2.87,2.37,17.53,17.53,0,0,0,4.41,1.47c1.71.37,3.59.66,5.63.91,1.35.24,2.72.52,4.1.82a31.64,31.64,0,0,1,4,1.16,20.86,20.86,0,0,1,3.66,1.74,12.36,12.36,0,0,1,3,2.51,11.53,11.53,0,0,1,2,3.47,13.19,13.19,0,0,1,.74,4.63,13.34,13.34,0,0,1-1.38,6.14,12.69,12.69,0,0,1-4,4.55,19.38,19.38,0,0,1-6.34,2.86,33.24,33.24,0,0,1-8.48,1,21.52,21.52,0,0,1-7.86-1.34,18.59,18.59,0,0,1-5.82-3.47,14.55,14.55,0,0,1-3.6-4.85,13.3,13.3,0,0,1-1.22-5.49h5.68Z"/><path d="M593.67,174.91v17.35H588V143.08h20a17.08,17.08,0,0,1,6.47,1.19,15,15,0,0,1,8.45,8.37,17.59,17.59,0,0,1,0,12.77,14.76,14.76,0,0,1-8.39,8.32,17,17,0,0,1-6.44,1.18Zm14.25-5a10.74,10.74,0,0,0,4.2-.83,10,10,0,0,0,3.34-2.3,10.6,10.6,0,0,0,2.22-3.45,11.46,11.46,0,0,0,.8-4.3,11.22,11.22,0,0,0-3.06-7.77,10.36,10.36,0,0,0-7.61-3.18H593.67v21.84h14.25Z"/><path d="M673.94,180.76H648.48l-4.88,11.5h-6l20.9-49.18H664l20.86,49.18h-6Zm-23.37-4.94h21.27l-10.41-24.55-.22-.83-.19.83Z"/><path d="M746.93,158.27a19,19,0,0,0-3.12-4.67,19.69,19.69,0,0,0-4.29-3.55,20.87,20.87,0,0,0-5.15-2.26,20.71,20.71,0,0,0-24.68,27.93,20.24,20.24,0,0,0,4.41,6.53,21,21,0,0,0,6.54,4.37,20.3,20.3,0,0,0,8,1.58,20.91,20.91,0,0,0,10.84-3,19.55,19.55,0,0,0,4.29-3.53A18.84,18.84,0,0,0,746.9,177h5.93a21.94,21.94,0,0,1-3.89,6.83,25.84,25.84,0,0,1-5.73,5.08,27,27,0,0,1-14.58,4.29,26,26,0,0,1-7-.92,25.52,25.52,0,0,1-6.28-2.57,26.62,26.62,0,0,1-5.32-4,24.57,24.57,0,0,1-4.1-5.16,25.45,25.45,0,0,1-2.63-6.14,24.46,24.46,0,0,1-.94-6.81,24.73,24.73,0,0,1,.94-6.87,25.94,25.94,0,0,1,2.63-6.16,24.83,24.83,0,0,1,4.1-5.16,26.24,26.24,0,0,1,5.32-4A26.78,26.78,0,0,1,728.63,142a27.17,27.17,0,0,1,7.58,1.08,25.93,25.93,0,0,1,7,3.17,25.08,25.08,0,0,1,5.75,5.1,22.45,22.45,0,0,1,3.89,6.92h-5.9Z"/><path d="M778.62,143.1H811v5.07H784.28v17.27h23.26v5H784.28v16.8h27v5H778.6V143.1Z"/><path d="M837.94,178.12a7.76,7.76,0,0,0,1,3.82,11.07,11.07,0,0,0,2.75,3.23,13.43,13.43,0,0,0,4.11,2.25,15.55,15.55,0,0,0,5.08.83q7.05,0,10.69-2.42a8,8,0,0,0,3.63-7.12,7.41,7.41,0,0,0-1.1-4.18,8.52,8.52,0,0,0-3.05-2.76,19.37,19.37,0,0,0-4.52-1.76q-2.58-.66-5.55-1.18c-1.18-.17-2.42-.36-3.72-.58a37.94,37.94,0,0,1-3.88-.86,21.35,21.35,0,0,1-3.65-1.4,12,12,0,0,1-3.08-2.11,9.37,9.37,0,0,1-2.12-3.06,10.62,10.62,0,0,1-.78-4.26,16.19,16.19,0,0,1,1-5.54,11.85,11.85,0,0,1,3.14-4.64,15.65,15.65,0,0,1,5.68-3.2,26.54,26.54,0,0,1,8.6-1.2,22.05,22.05,0,0,1,7,1,16,16,0,0,1,5.26,2.85,12.38,12.38,0,0,1,3.32,4.38,13.41,13.41,0,0,1,1.16,5.59h-5.71a7.71,7.71,0,0,0-.81-3.59,8.25,8.25,0,0,0-2.3-2.77,11.14,11.14,0,0,0-3.6-1.79,16.74,16.74,0,0,0-4.74-.62,18.54,18.54,0,0,0-5.94.8,10.43,10.43,0,0,0-3.75,2.07,7.27,7.27,0,0,0-2,2.89,9.45,9.45,0,0,0-.58,3.28,5.86,5.86,0,0,0,1,3.56,7.82,7.82,0,0,0,2.87,2.37,17.53,17.53,0,0,0,4.41,1.47c1.71.37,3.59.66,5.63.91,1.35.24,2.72.52,4.11.82a32.26,32.26,0,0,1,4,1.16,20.1,20.1,0,0,1,3.65,1.74,12.61,12.61,0,0,1,3,2.51,11.53,11.53,0,0,1,2,3.47,13.68,13.68,0,0,1,.73,4.63,13.21,13.21,0,0,1-1.38,6.14,12.59,12.59,0,0,1-4,4.55,19.09,19.09,0,0,1-6.34,2.86,33.16,33.16,0,0,1-8.47,1A21.45,21.45,0,0,1,842.9,192a18.76,18.76,0,0,1-5.83-3.47,14.79,14.79,0,0,1-3.59-4.85,13.14,13.14,0,0,1-1.22-5.49h5.68Z"/><path d="M90.28,58.19l-46.92,49a2.55,2.55,0,0,0-.7,1.71l-1,128A2.51,2.51,0,0,0,46,238.65l43.6-46.44a2.49,2.49,0,0,0,.68-1.72V171.91h66.6a2.51,2.51,0,0,0,1.85-.82l21.47-23.52H90.27V58.19Z"/><path d="M232.18,0H56.3a9.58,9.58,0,0,0-6.94,3L.7,54a2.51,2.51,0,0,0,1.81,4.24h177.7v89.4L234,91.72a2.51,2.51,0,0,0,.7-1.74V2.52A2.51,2.51,0,0,0,232.18,0ZM196.46,113a13.77,13.77,0,0,1-4,9.75l-2.93,2.93v-77H18.16a22,22,0,0,1,16.37-7.32H196.46V113Zm16.46-16.31a13.77,13.77,0,0,1-4,9.75L206,109.36v-77H34.62A22,22,0,0,1,51,25H212.92Zm14.81-16.93a13.77,13.77,0,0,1-4,9.75l-2.93,2.93v-77H49.43A22,22,0,0,1,65.8,8.08H227.73Z"/></g></g></svg>